<?xml version="1.0" encoding="iso-8859-1"?>
<!-- Uploaded to: SVG Repo, www.svgrepo.com, Generator: SVG Repo Mixer Tools -->
<svg fill="#000000" height="800px" width="800px" version="1.1" id="Layer_1" xmlns="http://www.w3.org/2000/svg" xmlns:xlink="http://www.w3.org/1999/xlink" 
	 viewBox="0 0 511.999 511.999" xml:space="preserve">
<g>
	<g>
		<path d="M455.232,94.11c4.327,0,7.835-3.508,7.835-7.835V74.673c0-10.236-8.327-18.565-18.565-18.565H67.497
			c-10.236,0-18.564,8.328-18.564,18.565v263.31c-0.001,10.236,8.327,18.564,18.564,18.564h177.012h185.569h14.425
			c10.236,0,18.565-8.327,18.565-18.565v-14.425v-28.934V111.828c0-4.327-3.508-7.835-7.835-7.835s-7.835,3.508-7.835,7.835v170.073
			c-55.947-22.731-103.14-63.271-133.729-115.087L311.644,135c-0.057-0.906-0.273-1.795-0.634-2.628l-18.769-43.164
			c-2.889-6.642-9.176-10.77-16.407-10.77c-7.924,0-14.621,4.865-17.059,12.395l-11.541,35.637l-32.121,4.331
			c-1.819,0.245-3.494,1.121-4.733,2.475l-22.302,24.363L133.1,170.045c-6.952,1.573-12.649,6.187-15.632,12.658
			c-2.984,6.473-2.791,13.804,0.528,20.115c2.786,5.297,7.893,9.36,12.831,13.288c3.561,2.833,7.245,5.765,8.78,8.264
			c8.775,14.295,13.182,18.2,16.041,20.006c10.084,6.369,44.175,7.954,61.332,8.346l17.94,88.154H67.497
			c-1.595,0-2.893-1.297-2.893-2.894V74.673c0-1.595,1.299-2.894,2.893-2.894h377.006c1.595,0,2.894,1.299,2.894,2.894v11.602
			C447.397,90.602,450.905,94.11,455.232,94.11z M231.08,243.432c-0.737-3.62-3.902-6.233-7.595-6.273
			c-24.417-0.259-54.097-2.639-59.47-6.033c-0.314-0.201-3.298-2.321-11.054-14.955c-2.976-4.849-7.756-8.651-12.378-12.329
			c-3.5-2.784-7.466-5.94-8.718-8.32c-1.033-1.964-1.094-4.246-0.165-6.259c0.928-2.011,2.698-3.445,4.856-3.933l57.369-12.945
			c1.56-0.352,2.975-1.173,4.055-2.353l22.042-24.08l25.312-3.413v4.36c0,13.669,11.121,24.79,24.79,24.79
			c4.327,0,7.835-3.508,7.835-7.835s-3.508-7.835-7.835-7.835c-5.028,0-9.119-4.091-9.119-9.119v-12.085l12.68-39.153
			c0.438-1.35,1.535-1.551,2.151-1.551c0.962,0,1.648,0.453,2.036,1.348l18.223,41.906l2.055,32.303
			c0.077,1.213,0.436,2.39,1.045,3.44c33.361,57.395,85.893,101.902,148.205,125.651v24.798c0,9.55-7.768,17.319-17.319,17.319
			H250.91L231.08,243.432z"/>
	</g>
</g>
<g>
	<g>
		<path d="M489.305,369.151c1.267-3.018,1.969-6.331,1.969-9.805V53.308c0-14.01-11.398-25.406-25.406-25.406H46.133
			c-14.01,0-25.406,11.398-25.406,25.406v306.038c0,3.474,0.702,6.785,1.969,9.805C10.032,370.042,0,380.622,0,393.508v66.165
			c0,13.469,10.957,24.424,24.424,24.424h463.15c13.469,0,24.424-10.957,24.424-24.424v-66.165
			C512,380.622,501.968,370.042,489.305,369.151z M36.397,53.308c0-5.369,4.368-9.736,9.736-9.736h419.735
			c5.369,0,9.736,4.368,9.736,9.736v306.038c0,5.369-4.368,9.737-9.736,9.737H46.133c-5.369,0-9.736-4.368-9.736-9.737V53.308z
			 M496.329,459.673c0,4.828-3.927,8.754-8.754,8.754H24.424c-4.828,0-8.754-3.927-8.754-8.754v-25.248h107.533
			c4.327,0,7.835-3.508,7.835-7.835s-3.508-7.835-7.835-7.835H15.671v-25.248c0-4.827,3.927-8.754,8.754-8.754h21.708h419.735
			h21.708c4.828,0,8.754,3.927,8.754,8.754V459.673z"/>
	</g>
</g>
<g>
	<g>
		<path d="M225.521,158.755c-4.327,0-7.835,3.508-7.835,7.835v2.264c0,4.327,3.508,7.835,7.835,7.835s7.835-3.508,7.835-7.835
			v-2.264C233.356,162.263,229.848,158.755,225.521,158.755z"/>
	</g>
</g>
<g>
	<g>
		<path d="M161.279,418.755h-12.392c-4.327,0-7.835,3.508-7.835,7.835c0,4.327,3.508,7.835,7.835,7.835h12.392
			c4.327,0,7.835-3.508,7.835-7.835C169.115,422.262,165.606,418.755,161.279,418.755z"/>
	</g>
</g>
<g>
	<g>
		<path d="M451.156,396.437c-16.627,0-30.154,13.527-30.154,30.154c0,16.627,13.527,30.154,30.154,30.154
			c16.627,0,30.154-13.527,30.154-30.154C481.309,409.964,467.782,396.437,451.156,396.437z M451.156,441.074
			c-7.986,0-14.483-6.497-14.483-14.483c0-7.986,6.497-14.483,14.483-14.483s14.483,6.497,14.483,14.483
			C465.639,434.577,459.142,441.074,451.156,441.074z"/>
	</g>
</g>
<g>
	<g>
		<path d="M374.686,396.437c-16.627,0-30.154,13.527-30.154,30.154c0,16.627,13.527,30.154,30.154,30.154
			c16.627,0,30.154-13.527,30.154-30.154C404.839,409.964,391.313,396.437,374.686,396.437z M374.686,441.074
			c-7.986,0-14.483-6.497-14.483-14.483c0-7.986,6.497-14.483,14.483-14.483c7.986,0,14.483,6.497,14.483,14.483
			C389.168,434.577,382.672,441.074,374.686,441.074z"/>
	</g>
</g>
</svg>