<?xml version="1.0" encoding="iso-8859-1"?>
<!-- Uploaded to: SVG Repo, www.svgrepo.com, Generator: SVG Repo Mixer Tools -->
<svg fill="#000000" height="800px" width="800px" version="1.1" id="Layer_1" xmlns="http://www.w3.org/2000/svg" xmlns:xlink="http://www.w3.org/1999/xlink" 
	 viewBox="0 0 511.997 511.997" xml:space="preserve">
<g>
	<g>
		<path d="M253.316,273.256c-9.992-1.266-18.519-0.359-26.042,0.445c-14.753,1.569-23.656,2.521-36.477-11.903
			c-1.435-1.613-3.47-2.564-5.628-2.628c-2.147-0.071-4.245,0.765-5.771,2.291l-82.347,82.347
			c-10.571,10.571-11.188,27.156-1.373,36.972l36.857,36.857c4.668,4.668,10.866,6.976,17.222,6.976
			c7.007,0,14.205-2.807,19.748-8.349l107.073-107.074c1.369-1.369,2.182-3.195,2.284-5.126
			C279.819,286.086,266.733,274.958,253.316,273.256z M254.314,309.294l-9.484-9.486c-3.06-3.06-8.023-3.062-11.082-0.001
			c-3.06,3.06-3.06,8.023,0,11.082l9.486,9.486l-29.469,29.468l-9.484-9.486c-3.06-3.06-8.023-3.062-11.083-0.001
			s-3.06,8.023,0,11.082l9.486,9.487l-29.468,29.468l-9.484-9.486c-3.06-3.06-8.023-3.062-11.083-0.001s-3.06,8.023,0,11.082
			l9.485,9.487l-3.704,3.704c-4.461,4.461-11.103,5.078-14.805,1.373l-36.858-36.856c-3.704-3.704-3.089-10.345,1.372-14.806
			l76.786-76.786c15.826,14.187,30.133,12.66,44.016,11.179c6.998-0.746,14.231-1.516,22.407-0.481
			c1.183,0.151,10.802,1.677,11.812,11.646L254.314,309.294z"/>
	</g>
</g>
<g>
	<g>
		<path d="M503.787,81.277l-21.243-21.243c-3.06-3.059-8.023-3.059-11.082,0c-3.06,3.062-3.06,8.023,0,11.083l21.243,21.243
			c2.335,2.334,3.622,5.438,3.622,8.736c0,3.299-1.286,6.402-3.614,8.73c-2.344,2.337-5.447,3.626-8.738,3.626
			c-3.305,0-6.409-1.284-8.742-3.617l-22.204-22.214c-1.47-1.47-3.463-2.297-5.542-2.297c-2.079,0-4.072,0.825-5.542,2.295
			l-59.369,59.37l-17.568-17.568l59.369-59.369c1.47-1.47,2.296-3.464,2.296-5.543c0-2.078-0.826-4.072-2.297-5.542l-22.209-22.199
			c-4.813-4.819-4.813-12.662-0.003-17.479c2.333-2.333,5.434-3.618,8.731-3.618c3.31,0,6.413,1.283,8.743,3.62l31.528,31.528
			c3.06,3.059,8.023,3.059,11.082,0c3.06-3.062,3.06-8.023,0-11.083l-31.52-31.517C425.441,2.919,418.398,0,410.894,0
			c-7.485,0-14.521,2.915-19.818,8.213c-10.913,10.926-10.913,28.706,0.004,39.638l16.67,16.662l-53.826,53.827l-29.064-29.064
			c-5.669-5.669-13.205-8.79-21.222-8.79s-15.553,3.121-21.222,8.79c-5.669,5.669-8.791,13.205-8.791,21.222
			c0,5.407,1.425,10.593,4.09,15.138l-35.076,35.076c-3.06,3.062-3.06,8.023,0,11.083c1.53,1.53,3.536,2.295,5.541,2.295
			c2.005,0,4.011-0.765,5.541-2.295l34.385-34.384l86.478,86.477L160.661,437.813c-7.691,7.684-20.207,7.684-27.894,0.002
			l-58.584-58.583c-7.684-7.69-7.684-20.206-0.002-27.893l154.007-153.997c3.06-3.06,3.06-8.023,0-11.082
			c-3.06-3.062-8.023-3.06-11.082-0.001L63.094,340.258c-13.786,13.799-13.786,36.253,0.002,50.055l2.014,2.013l-27.815,27.815
			c-13.26,13.26-15.067,33.69-5.443,48.919L2.295,498.618c-3.06,3.062-3.06,8.023,0,11.083c1.53,1.53,3.536,2.295,5.541,2.295
			c2.005,0,4.011-0.765,5.541-2.295l29.321-29.321c6.729,4.674,14.594,7.022,22.466,7.022c10.093,0,20.185-3.842,27.868-11.524
			l27.816-27.816l0.838,0.838c6.901,6.893,15.962,10.34,25.025,10.339c9.063,0,18.129-3.447,25.029-10.34l214.62-214.62
			c4.544,2.664,9.73,4.09,15.137,4.09c8.016,0,15.552-3.121,21.221-8.79c11.702-11.702,11.702-30.742,0-42.443l-29.063-29.063
			l53.826-53.827l16.663,16.671c5.293,5.294,12.335,8.21,19.826,8.21c7.47,0,14.505-2.913,19.814-8.209
			c5.295-5.296,8.212-12.335,8.212-19.821S509.083,86.574,503.787,81.277z M81.951,464.794c-9.254,9.257-24.315,9.258-33.571,0
			v0.001c-9.256-9.256-9.256-24.316,0-33.571l27.815-27.815l33.571,33.571L81.951,464.794z M411.637,198.219
			c5.591,5.589,5.591,14.686,0.001,20.277c-2.708,2.708-6.309,4.199-10.139,4.199c-3.831,0-7.43-1.491-10.139-4.201l-97.86-97.859
			c-2.708-2.708-4.199-6.308-4.199-10.139c0-3.83,1.491-7.429,4.199-10.139c2.708-2.708,6.309-4.199,10.139-4.199
			s7.43,1.491,10.139,4.2L411.637,198.219z"/>
	</g>
</g>
<g>
	<g>
		<path d="M340.956,233.734l-15.027-15.028c-3.06-3.062-8.022-3.061-11.082-0.001c-3.06,3.06-3.06,8.023,0,11.082l15.027,15.028
			c1.531,1.531,3.536,2.296,5.541,2.296c2.005,0,4.011-0.765,5.541-2.295C344.017,241.755,344.017,236.794,340.956,233.734z"/>
	</g>
</g>
<g>
	<g>
		<path d="M300.406,274.285l-15.027-15.028c-3.06-3.06-8.023-3.062-11.082-0.001c-3.06,3.06-3.06,8.023,0,11.082l15.027,15.028
			c1.53,1.531,3.535,2.296,5.541,2.296c2.005,0,4.011-0.765,5.541-2.295C303.467,282.306,303.467,277.345,300.406,274.285z"/>
	</g>
</g>
<g>
	<g>
		<path d="M398.884,264.425c-3.059-3.059-8.022-3.059-11.082,0l-17.293,17.293c-3.06,3.062-3.06,8.023,0,11.082
			c1.53,1.531,3.536,2.296,5.541,2.296s4.011-0.765,5.541-2.295l17.293-17.293C401.944,272.446,401.944,267.485,398.884,264.425z"/>
	</g>
</g>
<g>
	<g>
		<path d="M222.674,137.795c-3.059-3.059-8.022-3.059-11.082,0l-17.293,17.293c-3.06,3.062-3.06,8.023,0,11.082
			c1.53,1.53,3.535,2.296,5.541,2.296c2.005,0,4.011-0.765,5.541-2.295l17.293-17.293
			C225.735,145.817,225.735,140.856,222.674,137.795z"/>
	</g>
</g>
<g>
	<g>
		<path d="M448.562,141.544c-3.059-3.06-8.022-3.06-11.082,0l-7.392,7.392c-3.06,3.062-3.06,8.023,0,11.083
			c1.53,1.53,3.536,2.295,5.541,2.295c2.005,0,4.011-0.765,5.541-2.295l7.392-7.392
			C451.623,149.565,451.623,144.604,448.562,141.544z"/>
	</g>
</g>
<g>
	<g>
		<path d="M351.857,311.452c-3.059-3.059-8.022-3.059-11.082,0l-73.952,73.952c-3.06,3.062-3.06,8.023,0,11.083
			c1.53,1.53,3.536,2.295,5.541,2.295c2.005,0,4.011-0.765,5.541-2.295l73.952-73.952
			C354.917,319.474,354.917,314.513,351.857,311.452z"/>
	</g>
</g>
<g>
	<g>
		<path d="M281.92,42.737l-5.561-12.667c-1.741-3.962-6.363-5.767-10.326-4.026c-3.963,1.74-5.766,6.362-4.026,10.326l5.56,12.668
			c1.29,2.938,4.165,4.688,7.181,4.688c1.052,0,2.121-0.213,3.146-0.664C281.857,51.323,283.66,46.701,281.92,42.737z"/>
	</g>
</g>
<g>
	<g>
		<path d="M329.643,19.947c-3.983-1.695-8.585,0.162-10.278,4.146l-6.318,14.86c-1.694,3.982,0.162,8.584,4.145,10.278
			c1.001,0.425,2.04,0.627,3.063,0.627c3.048,0,5.947-1.79,7.215-4.772l6.318-14.86C335.482,26.243,333.626,21.641,329.643,19.947z"
			/>
	</g>
</g>
<g>
	<g>
		<path d="M244.662,68.973l-15.216-5.407c-4.077-1.449-8.559,0.682-10.008,4.761c-1.449,4.077,0.681,8.558,4.761,10.008
			l15.216,5.407c0.867,0.308,1.753,0.455,2.624,0.455c3.222,0,6.243-2.004,7.384-5.214
			C250.872,74.903,248.741,70.423,244.662,68.973z"/>
	</g>
</g>
</svg>