<?xml version="1.0" encoding="iso-8859-1"?>
<!-- Uploaded to: SVG Repo, www.svgrepo.com, Generator: SVG Repo Mixer Tools -->
<svg fill="#000000" height="800px" width="800px" version="1.1" id="Layer_1" xmlns="http://www.w3.org/2000/svg" xmlns:xlink="http://www.w3.org/1999/xlink" 
	 viewBox="0 0 478.133 478.133" xml:space="preserve">
<g>
	<g>
		<path d="M405.749,68.483c-9.016-23.44-23.672-42.448-42.392-54.968c-20.952-14.032-45.76-17.176-69.832-8.872
			c-21.464,7.416-40.32,23.168-51.728,43.2c-6.68,11.728-22.784,18.36-35.776,19.736c-14.072,1.504-27.2-9.376-33.4-20.12
			c-11.2-19.392-31.032-35.424-53.056-42.888c-24.112-8.168-48.896-4.872-69.776,9.296c-22.184,15.04-39.16,40.4-46.576,69.576
			c-8.176,32.176,0.736,60.128,10.176,89.72l0.32,0.992c18.608,58.36,34.536,119.072,49.944,177.784
			c7.48,28.504,15.208,57.984,23.152,86.792c0.128,0.456,0.288,0.896,0.496,1.328c0.792,1.656,1.568,3.392,2.368,5.168
			c5.616,12.504,12.6,28.064,29.712,31.776c10.512,2.28,19.944,0.32,27.992-5.816c26.08-19.88,29.336-79.16,31.488-118.376
			c0.48-8.696,0.888-16.2,1.488-20.712c1.776-13.504,19.72-14.32,25.12-14.216c8.536,0.12,28.584,1.784,30.36,14.64
			c0.632,4.568,1.072,12.224,1.592,21.088c2.272,39.088,5.696,98.16,31.736,117.808c5.832,4.408,12.368,6.616,19.512,6.616
			c2.736,0,5.552-0.328,8.464-0.976c16.96-3.784,23.704-19.2,29.12-31.592c0.832-1.904,1.648-3.776,2.48-5.544
			c0.2-0.432,0.368-0.872,0.496-1.336c7.888-29.368,15.56-59.408,22.976-88.464l7.84-30.648c1.072-4.28-1.504-8.632-5.784-9.736
			c-4.272-1.088-8.64,1.48-9.744,5.76l-7.84,30.672c-7.344,28.776-14.944,58.528-22.752,87.592c-0.792,1.704-1.56,3.48-2.36,5.296
			c-5.376,12.304-9.528,20.504-17.936,22.376c-5.848,1.304-10.592,0.424-14.848-2.8c-20.136-15.192-23.56-74.248-25.408-105.968
			c-0.552-9.584-0.992-17.152-1.712-22.344c-2.44-17.704-19.2-28.08-45.984-28.456c-23.008-0.144-38.88,10.456-41.208,28.136
			c-0.672,5.112-1.08,12.528-1.6,21.928c-1.744,31.84-5,91.128-25.208,106.528c-4.28,3.248-9.008,4.176-14.896,2.896
			c-9.216-2-13.944-12.512-18.512-22.688c-0.744-1.664-1.48-3.296-2.216-4.864c-7.848-28.504-15.504-57.696-22.912-85.928
			c-15.456-58.912-31.44-119.824-50.176-178.584l-0.32-0.992c-9.096-28.536-16.96-53.176-9.912-80.92
			c6.464-25.44,21.064-47.408,40.048-60.28c16.648-11.28,36.408-13.912,55.664-7.376c18.448,6.248,35.016,19.608,44.336,35.736
			c8.992,15.576,27.568,30.248,48.944,28.032c16.56-1.752,37.872-9.96,48-27.736c9.512-16.712,25.2-29.832,43.04-35.992
			c19.216-6.64,39.008-4.136,55.712,7.048c15.736,10.528,28.64,27.368,36.352,47.416c1.592,4.128,6.2,6.168,10.344,4.592
			C405.285,77.235,407.333,72.603,405.749,68.483z"/>
	</g>
</g>
<g>
	<g>
		<path d="M376.141,95.347c-55.952,0-101.456,45.512-101.456,101.456c0,55.944,45.504,101.456,101.456,101.456
			c55.952,0,101.464-45.512,101.464-101.456C477.605,140.859,432.093,95.347,376.141,95.347z M376.141,282.259
			c-47.12,0-85.456-38.336-85.456-85.456s38.344-85.456,85.456-85.456c47.128,0,85.464,38.336,85.464,85.456
			S423.269,282.259,376.141,282.259z"/>
	</g>
</g>
<g>
	<g>
		<path d="M424.653,160.443c-3.696-2.424-8.656-1.376-11.08,2.312l-41.536,63.416l-23.84-27.144
			c-2.912-3.32-7.968-3.648-11.288-0.736c-3.32,2.92-3.648,7.976-0.728,11.288l30.784,35.048c1.512,1.736,3.704,2.72,6,2.72
			c0.184,0,0.376-0.008,0.56-0.016c2.496-0.176,4.76-1.504,6.136-3.6l47.304-72.208
			C429.381,167.827,428.349,162.867,424.653,160.443z"/>
	</g>
</g>
<g>
	<g>
		<path d="M473.965,413.659l-24.984-13.664l-13.672-24.992c-1.4-2.56-4.096-4.16-7.016-4.16s-5.616,1.592-7.016,4.16l-13.672,24.992
			l-24.984,13.664c-2.568,1.4-4.168,4.096-4.168,7.016s1.592,5.616,4.168,7.016l24.984,13.664l13.672,24.992
			c1.4,2.568,4.096,4.16,7.016,4.16s5.616-1.6,7.016-4.16l13.672-24.992l24.984-13.664c2.568-1.4,4.168-4.096,4.168-7.016
			S476.533,415.059,473.965,413.659z M439.245,428.451c-1.344,0.736-2.448,1.84-3.176,3.176l-7.776,14.216l-7.784-14.216
			c-0.736-1.336-1.832-2.448-3.176-3.176l-14.2-7.776l14.2-7.768c1.344-0.736,2.448-1.84,3.176-3.176l7.784-14.216l7.776,14.216
			c0.736,1.336,1.832,2.448,3.176,3.176l14.208,7.768L439.245,428.451z"/>
	</g>
</g>
<g>
	<g>
		<path d="M161.957,149.659l-24.984-13.664l-13.664-24.992c-2.808-5.136-11.232-5.128-14.04,0l-13.664,24.992l-24.992,13.664
			c-2.56,1.4-4.16,4.096-4.16,7.016c0,2.92,1.592,5.616,4.16,7.016l24.992,13.664l13.664,24.992c1.4,2.56,4.096,4.16,7.016,4.16
			c2.92,0,5.616-1.592,7.016-4.16l13.664-24.992l24.992-13.664c2.568-1.4,4.16-4.096,4.16-7.016
			C166.117,153.755,164.517,151.059,161.957,149.659z M127.245,164.451c-1.336,0.736-2.448,1.84-3.176,3.176l-7.776,14.216
			l-7.768-14.216c-0.736-1.336-1.84-2.448-3.176-3.176l-14.216-7.776l14.216-7.768c1.336-0.736,2.448-1.84,3.176-3.176l7.768-14.216
			l7.776,14.216c0.736,1.336,1.84,2.448,3.176,3.176l14.216,7.768L127.245,164.451z"/>
	</g>
</g>
</svg>